<svg xmlns="http://www.w3.org/2000/svg" viewBox="0 0 48 48">
  
<g transform="matrix(3.4285714285714284,0,0,3.4285714285714284,0,0)"><g>
    <g>
      <path d="M10.5,11h2a1,1,0,0,0,1-1V5.5a1,1,0,0,0-1-1H1.5a1,1,0,0,0-1,1V10a1,1,0,0,0,1,1h2" style="fill: none;stroke: #000000;stroke-linecap: round;stroke-linejoin: round"></path>
      <path d="M3.5,9.5V13a.5.5,0,0,0,.5.5h6a.5.5,0,0,0,.5-.5V9.5Z" style="fill: none;stroke: #000000;stroke-linecap: round;stroke-linejoin: round"></path>
      <path d="M10.5,4.5V1A.5.5,0,0,0,10,.5H4a.5.5,0,0,0-.5.5V4.5" style="fill: none;stroke: #000000;stroke-linecap: round;stroke-linejoin: round"></path>
    </g>
    <line x1="11" y1="7" x2="10" y2="7" style="fill: none;stroke: #000000;stroke-linecap: round;stroke-linejoin: round"></line>
  </g></g></svg>